<?xml version="1.0" encoding="UTF-8"?>
<!DOCTYPE svg PUBLIC "-//W3C//DTD SVG 1.1//EN" "http://www.w3.org/Graphics/SVG/1.1/DTD/svg11.dtd">
<!-- Creator: CorelDRAW 2020 (64 Bit) -->
<svg xmlns="http://www.w3.org/2000/svg" xml:space="preserve" width="100mm" height="100mm" version="1.1" style="shape-rendering:geometricPrecision; text-rendering:geometricPrecision; image-rendering:optimizeQuality; fill-rule:evenodd; clip-rule:evenodd"
viewBox="0 0 10000 10000"
 xmlns:xlink="http://www.w3.org/1999/xlink"
 xmlns:xodm="http://www.corel.com/coreldraw/odm/2003">
 <defs>
  <style type="text/css">
   <![CDATA[
    .fil0 {fill:none}
    .fil2 {fill:#00E0C4;fill-rule:nonzero}
    .fil1 {fill:#9291FF;fill-rule:nonzero}
   ]]>
  </style>
 </defs>
 <g id="Camada_x0020_1">
  <metadata id="CorelCorpID_0Corel-Layer"/>
  <rect class="fil0" x="-3.8" y="3.8" width="10000" height="10000"/>
  <g id="_1864695351760">
   <path class="fil1" d="M3555.64 7127.3c2.97,-28.72 8.85,-58.83 17.54,-89.98 8.65,-31.15 15.63,-65.73 34.37,-96.92l2320.58 -3859.82c75.01,-124.82 170.08,-223.84 292.78,-292.26 122.76,-68.46 253.29,-95.33 391.49,-80.51 148.84,15.96 271.41,77.2 367.7,183.75 96.29,106.51 169.35,229.52 219.15,369l941.35 2777.52c17,42.67 30.36,82.01 40,118.04 9.64,36 12.34,74.2 8.09,114.55 -12.13,115.33 -59.68,209.38 -142.58,282.12 -82.93,72.78 -177.52,103.44 -283.83,92.04 -159.47,-17.09 -265.84,-104.3 -319.18,-261.64l-928.12 -2749.88 -2223.51 3704.05c-42.08,70.13 -93.36,132.93 -160.49,183.98 -67.14,51.07 -146,71.79 -236.31,62.16 -106.29,-11.37 -192.5,-61.48 -258.38,-150.18 -65.88,-88.64 -92.64,-190.74 -80.65,-306.02z"/>
   <path class="fil2" d="M3868.28 6216.18l-1302.71 -8.58c-145.35,-0.95 -280.94,-35.4 -406.57,-110.3 -125.65,-74.92 -221.11,-178.98 -286.38,-312.11 -70.3,-143.37 -88.29,-286.98 -54.03,-430.82 34.29,-143.84 95.27,-275.34 182.91,-394.51l1774.2 -2327.43c25.83,-38.05 50.95,-71.01 75.4,-98.89 24.46,-27.85 54.58,-50.58 90.46,-68.15 102.38,-50.19 207,-57.02 313.85,-20.5 106.83,36.57 185.35,106.05 235.56,208.43 75.32,153.62 62.72,296.37 -37.81,428.21l-1758.7 2300.74 1663.41 9.24 -489.59 824.67z"/>
   <path class="fil2" d="M6030.83 6236.56c-25.61,12.54 -53.72,23.18 -84.42,31.84 -30.66,8.71 -63.87,15.46 -99.61,20.29l-754.12 -4.96 489.5 -826.7 209.9 1.06c81.64,-1.9 162.5,14.02 242.57,47.81 80.07,33.77 141.47,94.18 184.14,181.23 50.21,102.41 57.02,207.04 20.48,313.85 -36.54,106.86 -106.04,185.37 -208.44,235.58z"/>
  </g>
 </g>
</svg>
